<svg xmlns="http://www.w3.org/2000/svg" aria-hidden="true" role="img" class="iconify iconify--logos"  preserveAspectRatio="xMidYMid meet" viewBox="0 0 170 170">
    <path d="M68.21 102.91h52.96a64.63 64.63 0 0 0-1.24 6.61c-.31 1.91-.65 3.82-1 5.73s-.72 3.81-1 5.72c-.48 2.85-.91 5.71-1.4 8.56-.32 1.91-.74 3.8-1.07 5.71-.47 2.78-.87 5.57-1.34 8.35s-1 5.76-1.52 8.65a2.17 2.17 0 0 0 .13 1.69c-.35.65-1 .55-1.54.55H60.44c-.48 0-1 .18-1.4-.37.31-.05.31-.29.35-.54.65-3.82 1.35-7.64 2-11.47.41-2.56.82-5.11 1.31-7.66.43-2.27.76-4.56 1.15-6.85.29-1.71.62-3.41.91-5.12.4-2.29.77-4.57 1.16-6.86.31-1.88.56-3.77 1-5.64.41-2.32.47-4.76 1.29-7.06z" fill="#d451a8">
    </path>
    <path d="M57.76.25C58-.08 58.3 0 58.6 0h52a1.55 1.55 0 0 1 .31 0 15.19 15.19 0 0 1-.42 2.41c-.76 4.47-1.48 8.94-2.25 13.41s-1.54 8.66-2.29 13-1.46 8.82-2.19 13.22c-.52 3.13-1.2 6.23-1.55 9.39a.28.28 0 0 1-.13 0h-24.2a1.83 1.83 0 0 0-1 .21.19.19 0 0 1-.18 0c-.35-.31-.78-.17-1.18-.18h-25c-.45 0-.89 0-1.33-.06q.81-4.18 1.52-8.4Q52.83 30.51 55 18c.9-5.32 1.86-10.63 2.74-16 .04-.53.43-1.15.02-1.75z" fill="#9af7b9">
    </path>
    <path d="M76.71 51.66a.19.19 0 0 0 .18 0c-.5 3.07-1 6.15-1.5 9.21l-5.31 31c-.63 3.68-1.24 7.36-1.87 11-.82 2.3-.88 4.74-1.37 7.1-.39 1.87-.64 3.76-1 5.64-.39 2.29-.76 4.57-1.16 6.86-.29 1.71-.62 3.41-.91 5.12-.39 2.29-.72 4.58-1.15 6.85-.49 2.55-.9 5.1-1.31 7.66-.62 3.83-1.32 7.65-2 11.47 0 .25 0 .49-.35.54q-13.18-15.93-26.35-31.87c-4.99-6.09-10.04-12.24-15.14-18.34-.61-.73-.67-1.07.1-1.76 16.94-15 34.38-29.32 51.54-44 2.52-2.14 5.07-4.33 7.6-6.48z" fill="#277ee6"></path><path d="M102.07 51.5a.28.28 0 0 0 .13 0H152c.43 0 .89-.15 1.28.19-2.6 2.32-5.17 4.69-7.82 7q-8.88 7.63-17.82 15.2-9.8 8.3-19.64 16.62l-13.86 11.78c-.18.14-.37.27-.73.52a30.86 30.86 0 0 1 .59-4.26q1.6-9.52 3.26-19c1-5.83 2-11.66 3-17.5.66-3.53 1.23-7.05 1.81-10.55z" fill="#fc9456"></path><path d="M153.3 51.67c-.39-.34-.85-.19-1.28-.19H102.2c.35-3.16 1-6.26 1.55-9.39.73-4.4 1.44-8.81 2.19-13.22s1.55-8.65 2.29-13 1.49-8.94 2.25-13.41a15.19 15.19 0 0 0 .42-2.41 29.62 29.62 0 0 1 3.9 4.47c3.21 3.81 6.36 7.69 9.53 11.54q6.22 7.55 12.46 15.11 6.74 8.13 13.5 16.24l2.87 3.48c.18.23.49.45.14.78z" fill="#fde974">
    </path>
    <path d="M57.76.25c.41.6 0 1.22-.07 1.77C56.81 7.35 55.85 12.66 55 18q-2.19 12.5-4.29 25-.72 4.2-1.46 8.38H.11L0 51.23z" fill="#277ee6">
    </path>
    <path d="M112.7 154a2.17 2.17 0 0 1-.13-1.69c.47-2.89 1-5.76 1.52-8.65s.87-5.57 1.34-8.35c.33-1.91.75-3.8 1.07-5.71.49-2.85.92-5.71 1.4-8.56.32-1.91.7-3.81 1-5.72s.68-3.82 1-5.73a64.63 64.63 0 0 1 1.24-6.61H170.15c.18.39-.09.5-.26.65l-46.78 41.3q-4.55 4-9.07 8c-.41.37-1.04.52-1.34 1.07z" fill="#fc9456">
    </path>
</svg>